# xmcd
#
# Track frame offsets:
#	150
#	11978
#	31633
#	40860
#	50860
#	61940
#	73730
#	84945
#	97000
#	110618
#	124160
#	137030
#	147573
#	158048
#	166790
#	179918
#
# Disc length: 2540 seconds
#
# Revision: 2
# Processed by: cddbd v1.5.2PL0 Copyright (c) Steve Scherf et al.
# Submitted via: audiograbber 1.83.01
#
DISCID=e609ea10
DTITLE=Various Artist - Country Hits No. 1
DYEAR=1900
DGENRE=Country
TTITLE0=Johnny Cash - Ring of fire
TTITLE1=Marty Robbins - El Paso
TTITLE2=Elvis Presley - Don't be cruel
TTITLE3=Don Gibson - Oh lonesome me
TTITLE4=Roger Miller - King of the road
TTITLE5=Tennessee Ernie Ford - Sixteen tons
TTITLE6=Sonny James - Young love
TTITLE7=Jim Reeves - Mexican Joe
TTITLE8=Lynn Anderson - Rose Garden
TTITLE9=Jimmy Dean - Big bad John
TTITLE10=Jerry Lee Lewis - Whole lotta shakin' goin' on
TTITLE11=George Jones - Tender Years
TTITLE12=Everly Brothers - All I have to do is dream
TTITLE13=Ferlin Husky - Wings of a dove
TTITLE14=Bobby Helms - My special angel
TTITLE15=Stonewall Jackson - Waterloo
EXTD=
EXTT0=
EXTT1=
EXTT2=
EXTT3=
EXTT4=
EXTT5=
EXTT6=
EXTT7=
EXTT8=
EXTT9=
EXTT10=
EXTT11=
EXTT12=
EXTT13=
EXTT14=
EXTT15=
PLAYORDER=
